# xmcd
#
# Track frame offsets: 
#        150
#        11657
#        22459
#        35096
#        46171
#        57239
#        70343
#        82757
#        94532
#        104809
#        117757
#        127454
#        139717
#        152500
#        163235
#        173108
#
# Disc length: 2460 seconds
#
# Revision: 0
# Processed by: cddbd v1.5.2PL0 Copyright (c) Steve Scherf et al.
# Submitted via: ExactAudioCopyFreeDBPlugin 1.0
#
DISCID=df099a10
DTITLE=James Brown - The Roots Of Rebellion [CD2)
DYEAR=2015
DGENRE=R&B
TTITLE0=Try Me
TTITLE1=Tell Me What I Did Wrong
TTITLE2=I Want You So Bad
TTITLE3=There Must Be A Reason
TTITLE4=I've Got To Change
TTITLE5=It Hurts To Tell You
TTITLE6=It Was You
TTITLE7=Got To Cry
TTITLE8=Good Good Lovin'
TTITLE9=Don't Let It Happen To Me
TTITLE10=I'll Go Crazy
TTITLE11=I Know It's True
TTITLE12=Think
TTITLE13=You've Got The Power (with Bea Ford)
TTITLE14=This Old Heart
TTITLE15=Wonder When You're Coming Home
EXTD=
EXTT0=
EXTT1=
EXTT2=
EXTT3=
EXTT4=
EXTT5=
EXTT6=
EXTT7=
EXTT8=
EXTT9=
EXTT10=
EXTT11=
EXTT12=
EXTT13=
EXTT14=
EXTT15=
PLAYORDER=
